# xmcd
#
# Track frame offsets:
#	150
#	12197
#	23872
#	41815
#	54257
#	67732
#	77915
#	90905
#	108007
#	122715
#	137472
#	153822
#	167397
#	181765
#
# Disc length: 2570 seconds
#
# Revision: 0
# Processed by: cddbd v1.5PL3 Copyright (c) Steve Scherf et al.
# Submitted via: dBpowerAMP V4.0
#
DISCID=930a080e
DTITLE=Buddy Greene - Simple Praise
DYEAR=1997
DGENRE=Gospel
TTITLE0=He leadth me
TTITLE1=How majestic is Your name/ Christ the Lord is risen today
TTITLE2=How great Thou art
TTITLE3=All creature of our God and King/ Joyful, joyful
TTITLE4=Be Thou my vision/ I'd rather have Jesus
TTITLE5=This is my Father's world
TTITLE6=Wayfaring stranger/ I am a pilgrim
TTITLE7=Mary, did you know?
TTITLE8=Fairest Lord Jesus/ Our great Saviour
TTITLE9=What a Friend we have in Jesus
TTITLE10=Higher ground
TTITLE11=Praise to the Lord, the Almighty
TTITLE12=Nothing but the blood
TTITLE13=When the saints go marching in/ When we all get to heaven
EXTD=Simple Praise
EXTT0=
EXTT1=
EXTT2=
EXTT3=
EXTT4=
EXTT5=
EXTT6=
EXTT7=
EXTT8=
EXTT9=
EXTT10=
EXTT11=
EXTT12=
EXTT13=
PLAYORDER=
